<svg id="Layer_1" data-name="Layer 1" xmlns="http://www.w3.org/2000/svg" viewBox="0 0 238.41 220.24"><defs><style>.cls-1{fill:#fff;}.cls-2{fill:#f5c2b6;}.cls-3{fill:none;stroke:#db6141;stroke-miterlimit:10;stroke-width:6px;}</style></defs><title>HedwigLogoFinal</title><g id="Group_136" data-name="Group 136"><g id="Layer_3" data-name="Layer 3"><g id="Group_121" data-name="Group 121"><g id="Group_134" data-name="Group 134"><g id="Group_133" data-name="Group 133"><path id="Path_138" data-name="Path 138" class="cls-1" d="M394.65,387.58l-55.93-2.08h-.06c-1-6.26-1.74-10.28-1.74-10.28v-1.06c12.71-.08,24.87-.54,37.23-.86C380,373.16,386,373,392,373l11.39,14.89Z" transform="translate(-171.24 -237.17)"/><path id="Path_139" data-name="Path 139" class="cls-1" d="M394.65,387.58c.64,3,11.18,54,0,58.29-11.54,4.43-54,0-54,0,3.93-16.23.41-45-2-60.36h.06Z" transform="translate(-171.24 -237.17)"/><path id="Path_140" data-name="Path 140" class="cls-2" d="M284.49,367.88h-.11c-2-.2-4.08-.3-6.17-.3a63,63,0,0,0-63,63c0,1.43.07,2.83.16,4.24h0c-25-27.51-41.09-71-41.09-120,0-6.16.27-12.23.76-18.21a199.62,199.62,0,0,1,12.76-56.12l.08,0A33.6,33.6,0,0,1,215,266.62l0,0c1.23-.62,2.46-1.22,3.82-1.85a141.24,141.24,0,0,1,118.77,0,32.38,32.38,0,0,1,30.92-24.6,198.47,198.47,0,0,1,12.91,56.46h0q.75,9,.75,18.2a209.44,209.44,0,0,1-8,58.15v.3c-12.36.32-24.52.78-37.23.86v1.06s-2.37,9.59-5.52,21.33l-.18-.05c-.25-.39-.51-.77-.76-1.14a.12.12,0,0,0-.06-.08h0c-.22-.35-.46-.67-.69-1a62.58,62.58,0,0,0-7.81-9.08h0l-.6-.57-.61-.55a1,1,0,0,0-.21-.21h0a2.28,2.28,0,0,0-.33-.29c-.32-.3-.65-.59-1-.87l-.43-.35c-.33-.29-.68-.59-1-.85s-.91-.73-1.37-1.08c-.09-.08-.19-.14-.3-.22q-.66-.52-1.35-1c-.28-.21-.57-.41-.86-.6-.49-.35-1-.69-1.5-1-.26-.18-.53-.35-.8-.51s-.8-.5-1.21-.74-.55-.34-.83-.48l-.14-.08h0c-.33-.17-.72-.4-1.09-.61h0c-.56-.31-1.11-.6-1.68-.88-1.13-.58-2.29-1.11-3.47-1.62-.47-.21-1-.41-1.44-.6l-.33-.13c-.6-.24-1.2-.48-1.81-.68h0q-3-1.06-6.13-1.85c-.44-.11-.88-.22-1.32-.31-1.84-.41-3.72-.76-5.63-1C285.77,368,285.13,367.94,284.49,367.88Zm84.29-49.23c-.75-12.37-1.59-22.84-2.31-30.84-1.23-13.81-2.8-28.41-6.24-28.69-2.09-.2-4.2,5-5.68,4.38-1.24-.49.08-4.2-1.27-5.09-1.93-1.26-6.46,5.66-13.39,9.73a19.1,19.1,0,0,1-8.38,2.78,26.81,26.81,0,0,1-9.09-.93c-25.59,0-46.36,21.79-46.36,48.66,0-26.87-20.76-48.65-46.37-48.65a26.72,26.72,0,0,1-9.07.93,17.24,17.24,0,0,1-4-.77c-9.45-3-15.5-13.26-17.81-11.75-1.35.9,0,4.61-1.27,5.1-1.5.59-3.59-4.58-5.68-4.39-3.45.29-5,14.89-6.26,28.69-.71,8-1.56,18.47-2.29,30.84,0,26.89,20.75,48.68,46.34,48.68,17.2,0,33.14-11,41.14-25.65l.09.12,5.45,7.12h0l5.56-6.53h0a46,46,0,0,0,40.47,24.95c25.61,0,46.36-21.79,46.36-48.67Z" transform="translate(-171.24 -237.17)"/><path id="Path_141" data-name="Path 141" class="cls-1" d="M366.47,287.81c.72,8,1.56,18.47,2.31,30.84,0,26.88-20.75,48.67-46.36,48.67A46,46,0,0,1,282,342.37l4.87-5.72L276.38,324.4h0a55,55,0,0,1-.33-5.73h0c0-26.87,20.77-48.66,46.36-48.66a27.06,27.06,0,0,0,9.09.93,19.23,19.23,0,0,0,8.38-2.78c6.93-4.07,11.46-11,13.39-9.73,1.35.89,0,4.6,1.27,5.09,1.48.6,3.59-4.58,5.68-4.38C363.67,259.4,365.24,274,366.47,287.81Zm-5.61,30.76A35.87,35.87,0,1,0,325,354.44h0a35.87,35.87,0,0,0,35.87-35.87Z" transform="translate(-171.24 -237.17)"/><circle id="Ellipse_27" data-name="Ellipse 27" class="cls-1" cx="153.75" cy="81.4" r="35.87"/><path id="Path_142" data-name="Path 142" class="cls-2" d="M323.22,444.79c-2.18-.76-3.86-1.91-4.55-3.62a7.47,7.47,0,0,1,.73-5.79c3.28-7.38,8.21-24.66,12-38.82,3.15-11.74,5.52-21.33,5.52-21.33s.78,4,1.74,10.28c2.38,15.34,5.9,44.13,2,60.36h0C336.46,446.21,328.42,446.61,323.22,444.79Z" transform="translate(-171.24 -237.17)"/><path id="Path_143" data-name="Path 143" class="cls-1" d="M331.22,396.51l.18.05c-3.79,14.16-8.72,31.44-12,38.82a7.47,7.47,0,0,0-.73,5.79c.69,1.71,2.37,2.86,4.55,3.62a110.54,110.54,0,0,1-107.88-10c-.09-1.41-.16-2.81-.16-4.24a63,63,0,0,1,63-63c2.09,0,4.14.1,6.17.3h.11c.64.06,1.28.13,1.92.23,1.91.23,3.79.58,5.63,1,.44.09.88.2,1.32.31,2.08.52,4.12,1.13,6.13,1.85h0c.61.2,1.21.44,1.81.68l.33.13c.49.19,1,.4,1.44.6,1.18.51,2.34,1,3.47,1.62.57.28,1.12.57,1.68.88h0c.37.21.76.44,1.09.61h0l.14.08.83.48c.41.24.82.49,1.21.74s.54.33.8.51c.5.32,1,.65,1.5,1,.29.19.58.39.86.6.45.33.91.65,1.35,1,.11.08.21.14.3.22.46.35.88.71,1.37,1.08.32.28.68.56,1,.85l.43.35,1,.87a4.28,4.28,0,0,1,.33.29h0a1,1,0,0,1,.21.21l.61.55.6.57h0a63.21,63.21,0,0,1,7.81,9.08c.23.33.47.65.69,1h0a.17.17,0,0,1,.06.08C330.71,395.74,331,396.12,331.22,396.51Z" transform="translate(-171.24 -237.17)"/><path id="Path_144" data-name="Path 144" class="cls-2" d="M319.15,382.7c.33.28.66.57,1,.87Z" transform="translate(-171.24 -237.17)"/><path id="Path_145" data-name="Path 145" class="cls-2" d="M317.7,381.5c.34.26.69.56,1,.85C318.38,382.06,318,381.78,317.7,381.5Z" transform="translate(-171.24 -237.17)"/><path id="Path_146" data-name="Path 146" class="cls-2" d="M314.68,379.21q.69.46,1.35,1C315.59,379.86,315.13,379.54,314.68,379.21Z" transform="translate(-171.24 -237.17)"/><path id="Path_147" data-name="Path 147" class="cls-2" d="M312.32,377.61c.51.31,1,.65,1.5,1C313.32,378.26,312.82,377.93,312.32,377.61Z" transform="translate(-171.24 -237.17)"/><path id="Path_148" data-name="Path 148" class="cls-2" d="M310.31,376.36l-.83-.48C309.76,376,310,376.19,310.31,376.36Z" transform="translate(-171.24 -237.17)"/><path id="Path_149" data-name="Path 149" class="cls-2" d="M301.64,372.08c.48.19,1,.39,1.44.6C302.61,372.48,302.13,372.27,301.64,372.08Z" transform="translate(-171.24 -237.17)"/><path id="Path_150" data-name="Path 150" class="cls-2" d="M276.38,324.4l10.44,12.25L282,342.37h0l-5.56,6.53Z" transform="translate(-171.24 -237.17)"/><path id="Path_151" data-name="Path 151" class="cls-1" d="M276.06,318.66a55,55,0,0,0,.33,5.73h0L266.44,336l4.39,5.71c-8,14.64-23.94,25.65-41.14,25.65-25.59,0-46.34-21.79-46.34-48.68.73-12.37,1.58-22.84,2.29-30.84,1.24-13.8,2.81-28.4,6.26-28.69,2.09-.19,4.18,5,5.68,4.39,1.24-.49-.08-4.2,1.27-5.1,2.31-1.51,8.36,8.74,17.81,11.75a17.79,17.79,0,0,0,4,.77,27,27,0,0,0,9.07-.93c25.61,0,46.36,21.78,46.37,48.65Zm-12.32-.09v0a35.87,35.87,0,1,0-35.86,35.88A35.87,35.87,0,0,0,263.74,318.55Z" transform="translate(-171.24 -237.17)"/><path id="Path_152" data-name="Path 152" class="cls-2" d="M270.83,341.68,266.44,336l9.94-11.57v24.51h0l-5.45-7.12Z" transform="translate(-171.24 -237.17)"/><path id="Path_153" data-name="Path 153" class="cls-1" d="M263.74,318.55v0a35.87,35.87,0,1,1-35.86-35.88A35.88,35.88,0,0,1,263.74,318.57Z" transform="translate(-171.24 -237.17)"/></g></g></g></g><g id="hatch"><g id="Group_122" data-name="Group 122"><g id="Group_121-2" data-name="Group 121-2"><path id="Path_127" data-name="Path 127" class="cls-3" d="M330.4,395.28c-.22-.34-.46-.67-.69-1C329.94,394.61,330.18,394.94,330.4,395.28Z" transform="translate(-171.24 -237.17)"/><path id="Path_128" data-name="Path 128" class="cls-3" d="M293.36,369.41l-1.32-.32Z" transform="translate(-171.24 -237.17)"/><path id="Path_129" data-name="Path 129" class="cls-3" d="M187.9,240.17A199.76,199.76,0,0,0,175,296.65" transform="translate(-171.24 -237.17)"/><path id="Path_130" data-name="Path 130" class="cls-3" d="M381.4,296.65a198.61,198.61,0,0,0-12.91-56.47h0" transform="translate(-171.24 -237.17)"/><path id="Path_131" data-name="Path 131" class="cls-3" d="M214.5,266.9l.44-.23c1.24-.62,2.49-1.22,3.86-1.86a141.26,141.26,0,0,1,118.78,0h0" transform="translate(-171.24 -237.17)"/><path id="Path_132" data-name="Path 132" class="cls-3" d="M374.14,373a209.8,209.8,0,0,0,8-58.15q0-9.24-.75-18.2" transform="translate(-171.24 -237.17)"/><path id="Path_133" data-name="Path 133" class="cls-3" d="M329.71,394.28c.23.33.47.66.69,1" transform="translate(-171.24 -237.17)"/><path id="Path_134" data-name="Path 134" class="cls-3" d="M320.68,384.06c.41.36.82.75,1.21,1.13" transform="translate(-171.24 -237.17)"/><path id="Path_135" data-name="Path 135" class="cls-3" d="M316.33,380.41c.45.37.91.71,1.36,1.09s1,.78,1.45,1.2.88.77,1.32,1.16" transform="translate(-171.24 -237.17)"/><path id="Path_136" data-name="Path 136" class="cls-3" d="M311.52,377.1c1.07.67,2.12,1.36,3.16,2.1l1.35,1" transform="translate(-171.24 -237.17)"/><path id="Path_137" data-name="Path 137" class="cls-3" d="M309.34,375.8l1,.56" transform="translate(-171.24 -237.17)"/><path id="Path_138-2" data-name="Path 138-2" class="cls-3" d="M306.55,374.3c.57.28,1.13.58,1.68.88" transform="translate(-171.24 -237.17)"/><path id="Path_139-2" data-name="Path 139-2" class="cls-3" d="M299.49,371.26c.62.22,1.22.44,1.81.68s1.2.48,1.78.74" transform="translate(-171.24 -237.17)"/><path id="Path_140-2" data-name="Path 140-2" class="cls-3" d="M292,369.1c.44.09.88.2,1.32.31" transform="translate(-171.24 -237.17)"/><path id="Path_141-2" data-name="Path 141-2" class="cls-3" d="M284.38,367.87c.68.06,1.35.14,2,.23" transform="translate(-171.24 -237.17)"/><path id="Path_142-2" data-name="Path 142-2" class="cls-3" d="M175,296.65c-.49,6-.76,12-.76,18.2,0,49,16.13,92.47,41.1,120" transform="translate(-171.24 -237.17)"/><path id="Path_143-2" data-name="Path 143-2" class="cls-3" d="M331.22,396.51c-.25-.39-.5-.77-.76-1.14a.16.16,0,0,0-.06-.08c-.22-.35-.45-.68-.69-1a62.58,62.58,0,0,0-7.81-9.08c-.39-.4-.8-.77-1.21-1.14a2.09,2.09,0,0,0-.22-.2c-.43-.39-.87-.78-1.32-1.16s-1-.82-1.45-1.2-.91-.73-1.37-1.08c-.09-.08-.19-.14-.3-.22q-.66-.52-1.35-1c-1-.74-2.07-1.45-3.16-2.11-.39-.25-.8-.5-1.21-.74s-.64-.39-1-.56l-1.1-.62c-.55-.31-1.12-.6-1.68-.88-1.13-.58-2.3-1.11-3.48-1.62-.58-.27-1.18-.5-1.77-.74s-1.2-.47-1.81-.67a60.05,60.05,0,0,0-6.13-1.86c-.44-.11-.88-.22-1.32-.31-1.84-.41-3.73-.76-5.63-1-.68-.1-1.35-.18-2-.24q-3-.3-6.18-.3a63,63,0,0,0-63,63c0,1.43.07,2.82.16,4.24a110.52,110.52,0,0,0,107.91,9.93" transform="translate(-171.24 -237.17)"/><path id="Path_144-2" data-name="Path 144-2" class="cls-3" d="M187.84,240.56A33.59,33.59,0,0,1,215,266.62" transform="translate(-171.24 -237.17)"/><path id="Path_145-2" data-name="Path 145-2" class="cls-3" d="M369,240.17h-.52a32.4,32.4,0,0,0-30.92,24.61h0" transform="translate(-171.24 -237.17)"/><path id="Path_146-2" data-name="Path 146-2" class="cls-3" d="M263.75,318.57a35.87,35.87,0,1,1-35.87-35.88,35.88,35.88,0,0,1,35.87,35.88Z" transform="translate(-171.24 -237.17)"/><circle id="Ellipse_25" data-name="Ellipse 25" class="cls-3" cx="153.75" cy="81.4" r="35.87"/><path id="Path_147-2" data-name="Path 147-2" class="cls-3" d="M205,329.78a22.88,22.88,0,0,1,45.76,0" transform="translate(-171.24 -237.17)"/><path id="Path_148-2" data-name="Path 148-2" class="cls-3" d="M302.11,329.78a22.89,22.89,0,1,1,45.78,0h0" transform="translate(-171.24 -237.17)"/><line id="Line_40" data-name="Line 40" class="cls-3" x1="105.14" y1="87.23" x2="105.14" y2="111.74"/><path id="Path_149-2" data-name="Path 149-2" class="cls-3" d="M276.38,324.4,266.44,336l4.48,5.84,5.45,7.12,5.57-6.54" transform="translate(-171.24 -237.17)"/><path id="Path_150-2" data-name="Path 150-2" class="cls-3" d="M282,342.37a46,46,0,0,0,40.47,24.95c25.61,0,46.36-21.79,46.36-48.67-.75-12.38-1.58-22.85-2.31-30.85-1.23-13.8-2.8-28.4-6.24-28.69-2.09-.19-4.2,5-5.68,4.39-1.24-.49.08-4.2-1.27-5.1-1.93-1.26-6.46,5.66-13.39,9.73a19.1,19.1,0,0,1-8.38,2.78,26.8,26.8,0,0,1-9.09-.92c-25.59,0-46.36,21.78-46.36,48.65a54.91,54.91,0,0,0,.33,5.74v0" transform="translate(-171.24 -237.17)"/><path id="Path_151-2" data-name="Path 151-2" class="cls-3" d="M282,342.37l4.87-5.72L276.38,324.4" transform="translate(-171.24 -237.17)"/><path id="Path_152-2" data-name="Path 152-2" class="cls-3" d="M271.11,341.18c-7.92,14.89-24,26.14-41.42,26.14-25.59,0-46.34-21.79-46.34-48.67.73-12.37,1.58-22.84,2.29-30.84,1.24-13.8,2.82-28.4,6.26-28.69,2.09-.19,4.18,5,5.68,4.38,1.24-.48-.08-4.2,1.27-5.09,2.31-1.51,8.36,8.74,17.81,11.75a17.34,17.34,0,0,0,4,.77,27,27,0,0,0,9.07-.93c25.61,0,46.37,21.79,46.37,48.66a48.09,48.09,0,0,1-.34,5.75" transform="translate(-171.24 -237.17)"/><path id="Path_153-2" data-name="Path 153-2" class="cls-3" d="M262.78,410.5a4.31,4.31,0,0,1-8,.33" transform="translate(-171.24 -237.17)"/><path id="Path_154" data-name="Path 154" class="cls-3" d="M277.19,410.42a4.33,4.33,0,0,1-8.05.34" transform="translate(-171.24 -237.17)"/><path id="Path_155" data-name="Path 155" class="cls-3" d="M288.84,410.42a4.33,4.33,0,0,1-8,.34" transform="translate(-171.24 -237.17)"/><path id="Path_156" data-name="Path 156" class="cls-3" d="M300.83,409a4.31,4.31,0,0,1-8.05.33" transform="translate(-171.24 -237.17)"/><path id="Path_157" data-name="Path 157" class="cls-3" d="M258.48,418.24a4.33,4.33,0,0,1-8.05.33" transform="translate(-171.24 -237.17)"/><path id="Path_158" data-name="Path 158" class="cls-3" d="M271.46,418.24a4.32,4.32,0,0,1-8,.33" transform="translate(-171.24 -237.17)"/><path id="Path_159" data-name="Path 159" class="cls-3" d="M284.09,416.9a4.32,4.32,0,0,1-8,.33" transform="translate(-171.24 -237.17)"/><path id="Path_160" data-name="Path 160" class="cls-3" d="M296.8,416.9a4.31,4.31,0,0,1-8,.33" transform="translate(-171.24 -237.17)"/><path id="Path_161" data-name="Path 161" class="cls-3" d="M275.31,426.9a4.31,4.31,0,0,1-8,.33" transform="translate(-171.24 -237.17)"/><path id="Path_162" data-name="Path 162" class="cls-3" d="M288.16,425.42a4.33,4.33,0,0,1-8.05.35" transform="translate(-171.24 -237.17)"/><path id="Path_163" data-name="Path 163" class="cls-3" d="M308.88,416.9a4.32,4.32,0,0,1-8.05.33" transform="translate(-171.24 -237.17)"/><path id="Path_164" data-name="Path 164" class="cls-3" d="M394.63,387.44s11.54,54,0,58.42-54,0-54,0c5.53-22.85-3.71-70.63-3.71-70.63s-11.52,46.65-17.52,60.15a7.5,7.5,0,0,0-.74,5.78c2.35,5.78,16,5.19,22,4.71" transform="translate(-171.24 -237.17)"/><path id="Path_165" data-name="Path 165" class="cls-3" d="M338.72,385.5l64.69,2.4L392,373c-18.92.1-36.6,1.05-55.52,1.15" transform="translate(-171.24 -237.17)"/></g></g></g></g></svg>