<svg xmlns="http://www.w3.org/2000/svg" width="89.634" height="205.627" viewBox="0 0 89.634 205.627">
  <g id="Group_35" data-name="Group 35" transform="translate(-285.366 -584.536)">
    <path id="Subtraction_5" data-name="Subtraction 5" d="M-325.319,203.6l0,0c-.159-.225-.347-.49-.534-.745-1.975-2.005-4.025-4.311-6.268-7.05l-.09.046c-.405.209-.824.424-1.25.6a5.362,5.362,0,0,1-2.133.489c-.111,0-.225,0-.338-.013a7.683,7.683,0,0,1-4.935-2.837,35.711,35.711,0,0,1-3.97-5.671c-.361-.595-.746-1.227-1.135-1.842-.116-.181-.242-.375-.355-.546l-.083-.127-.008-.012-.2-.3c-2.8-3.863-5.9-8.366-8.975-13.023-.571-.758-1.153-1.523-1.715-2.262l-.035-.046-.011-.014c-2.184-2.872-4.441-5.84-6.464-8.883a63.122,63.122,0,0,1-4.236-7.559,17.225,17.225,0,0,1-1.973-5.859,2.124,2.124,0,0,1-.159-1.786,1.2,1.2,0,0,1,.219-.29.343.343,0,0,1,.222-.382c.16-.072.319-.147.472-.22l.025-.012.049-.023c.1-.049.206-.1.31-.145-4.017-5.46-7.653-10.153-11.118-14.347-.039-.034-.081-.068-.119-.1l-.014-.011c-.037-.03-.079-.063-.116-.1l-.094-.085-.011-.01-.085-.076-.013-.012a7.618,7.618,0,0,1-1.734-1.96c-.172-.167-.323-.319-.459-.462a.521.521,0,0,1-.388-.159.243.243,0,0,1-.019-.022l0-.006,0-.006c-.223.049-.461.107-.773.184a13.66,13.66,0,0,1-3.069.511,3.349,3.349,0,0,1-1.2-.189c-1.713-.655-1.815-3.366-1.9-5.545a16.442,16.442,0,0,0-.14-1.931,53.2,53.2,0,0,0-2.691-9.752c-.01-.024.008-.054.03-.086l.005-.009c-.21-.488-.4-.969-.582-1.434l0,0c-.167-.425-.341-.865-.507-1.247a86.787,86.787,0,0,1-5.475-17.587c-.023-.035-.047-.069-.068-.1l-.013-.018c-.028-.038-.056-.076-.08-.116a7.342,7.342,0,0,1-.433-5.729,25.221,25.221,0,0,1,4.4-8.2,71.65,71.65,0,0,1,8.858-9.528,161.854,161.854,0,0,1,28.427-20.239,184.147,184.147,0,0,1,19.463-9.729,127.445,127.445,0,0,1,13.487-4.91v1.695c-2.032.735-4.082,1.543-6.268,2.47-3.24,1.376-6.693,2.985-10.558,4.919-6.116,3.061-12.62,6.354-18.982,10-2.836,1.625-5.406,3.182-7.858,4.761a154.421,154.421,0,0,0-16.6,13.307c-.466.432-.946.872-1.354,1.245-1.521,1.393-3.095,2.833-4.607,4.412a19.906,19.906,0,0,0-3.522,6.473,11.623,11.623,0,0,0-.344,4.494,10.766,10.766,0,0,0,1.423,4.382,24.8,24.8,0,0,1,2.435-3.906,19.669,19.669,0,0,1,3.793-4.195,94.752,94.752,0,0,1,9.446-7.6c.637-.469,1.321-.973,2.008-1.485,2.618-1.953,5.416-3.926,8.318-5.862a154.518,154.518,0,0,1,19.3-12.325c3.57-1.909,7.23-3.662,10.878-5.211a125.635,125.635,0,0,1,12.488-4.543V46.7c-.607.187-1.234.386-1.864.592-1.694.552-3.462,1.18-5.406,1.92-.664.274-1.246.518-1.78.745A193.9,193.9,0,0,0-352.6,58.864a159.186,159.186,0,0,0-18.924,13.108A209.06,209.06,0,0,0-388.635,87.4c-.819,1.358-1.6,2.793-2.4,4.387l.1.036.061.023.047.018c.135.051.273.1.411.15a67.829,67.829,0,0,0,11.463-1.489,123.739,123.739,0,0,0,22.127-7.136,170.405,170.405,0,0,0,21.556-11.133c3.367-2.039,6.717-4.239,9.958-6.538v1.942a163.141,163.141,0,0,1-28.258,15.869c-2.219,1.059-4.458,2.07-6.656,3A121.736,121.736,0,0,1-376.043,92.1a56.436,56.436,0,0,1-12.732,2.116,11.531,11.531,0,0,1-2.1.2,9.328,9.328,0,0,1-3.6-.7,11.174,11.174,0,0,1-2.2-.775,84.053,84.053,0,0,0,2.585,8.983c.823,2.336,1.753,4.649,2.762,6.873.123.273.256.612.4.97l.009.022a8.466,8.466,0,0,0,1.734,3.151,5.28,5.28,0,0,0,3.453,1.04,18.028,18.028,0,0,0,3.56-.456,109.071,109.071,0,0,0,20.563-6.809c4.166-1.769,8.334-3.7,12.012-5.4A251.193,251.193,0,0,0-325.319,88.4v1.217c-2.186,1.3-4.421,2.592-6.642,3.828a52.7,52.7,0,0,1,2.406,5.5l0,.006a49.106,49.106,0,0,0,2.6,5.858l.194-.1.059-.031.028-.015.374-.2.044-.021.011-.005a1.96,1.96,0,0,1,.4-.109l.521-.326v20.475l-.74.465c-.942.459-1.871.923-2.656,1.317l-.273.135-.005,0-.267.133c-1,.5-2.022,1.033-2.8,1.436l-.178.092-.127.065c-1.393.726-2.644,1.386-3.825,2.017l-.241.13-.008,0-.322.172c-.652.349-1.327.71-1.991,1.069l-2.148,1.162-.823.446-.093.05c-3.746,2.03-7.62,4.129-11.476,6.1-.5.253-1.014.5-1.588.751-.267.119-.526.232-.77.336-1.44.611-2.968,1.173-4.316,1.669l-.065.024c-1.12.413-2.275.839-3.391,1.291-1.471.773-3.035,1.544-4.65,2.294l-.033.027-.008.007a.351.351,0,0,0-.057.049c-.024.024-.047.052-.068.077a1.553,1.553,0,0,0-.192.283,4.1,4.1,0,0,0-.656.184,8.535,8.535,0,0,0,.035,1.822c.4.869,1.071,2.078,1.844,3.479.564,1.019,1.414,2.554,2.389,4.386,1.837,3.455,5.083,8.763,9.139,14.946,1.166,1.54,2.529,3.359,3.8,5.174,2.262,3.227,4.413,6.542,6.4,9.643,2.6,3.574,6.06,8.14,7.789,9.6a.46.46,0,0,1,.059-.03.418.418,0,0,1,.164-.035.393.393,0,0,1,.276.118,1.255,1.255,0,0,0,.91.306h.026a19.2,19.2,0,0,0,2.149-.659c.326-.189.654-.359.931-.5l-.014-.017a.811.811,0,0,0,.088-.031c.025-.011.049-.022.073-.033l.045-.021.07-.037.027-.015c.033-.019.072-.041.11-.058a1.43,1.43,0,0,0,.207-.159l.025-.01.032-.013.092-.041.079-.034.017-.007.016-.007a.462.462,0,0,0,.062.016l.009,0,.04.009.135-.059.084-.037c.11-.049.256-.113.4-.174s.287-.119.411-.166l.052-.021.014-.007.014-.007.032-.012a.359.359,0,0,1,.129-.024.4.4,0,0,1,.106.015l.624-.276.422-.187.041-.019.544-.241c.622-.369,1.232-.765,1.814-1.174.719-.361,1.441-.7,2.053-.986V203.6Zm-42.132-50.75h0l.1.2c.078.166.157.33.238.5l.047.094c.013.023.024.047.036.071a.423.423,0,0,1,.1.113l.119.2.083.139C-366.984,153.7-367.214,153.282-367.452,152.852ZM-370.3,132.36h0l.361.549.154.234.011.017.259.393a.486.486,0,0,1,.239.125l.043.045.142.149-.047-.094-.051-.1,0-.005-.039-.077c-.077-.151-.156-.307-.23-.465-.218-.184-.429-.384-.633-.578l-.011-.01-.02-.019-.077-.073-.013-.012Zm12.509-.821h0l-.13.014-.057.006c-.129.014-.26.027-.39.038l.584.3a1.378,1.378,0,0,1,.336.04l-.34-.392Zm.574-2.955c-.157.066-.316.128-.453.181l-.006,0-.077.03-.005,0-.206.081.139.017.063.008h.013l.122.015.233-.04.1-.017.011,0c.236-.042.468-.082.7-.118l-.173-.045-.173-.045-.016,0-.269-.069Zm-32.109-13.748a48.662,48.662,0,0,1,1.245,5.367,16.64,16.64,0,0,1,.161,1.914v.034a10.489,10.489,0,0,0,.437,3.092c.033.263.066.526.1.768l0,.014.034.269a5.869,5.869,0,0,0,3.2,1,5.451,5.451,0,0,0,.7-.046c-1.937-2.611-2.193-5.834-2.441-8.951l0-.045c-.079-.988-.16-2.01-.3-3a.376.376,0,0,1,.028-.181c-.364.028-.707.042-1.019.042a7.241,7.241,0,0,1-2.153-.283Zm10.543-1.145a40.381,40.381,0,0,1-5.291,1.144l-.479.065h-.008l-.143.019-.1.013c.135,1.009.214,2.069.284,3,.237,3.16.481,6.428,2.583,9.03.163-.02.376-.046.577-.075a2.768,2.768,0,0,1,.761-.134.989.989,0,0,1,.111.006c.641-.1,1.3-.224,2.024-.371l.162-.049.166-.05.014,0,.005,0,.09-.027.251-.076a1.947,1.947,0,0,1,.539-.084c.031,0,.062,0,.091,0,3.351-.775,6.725-1.861,9.987-2.912l.3-.1-.123-.375A30.315,30.315,0,0,1-368.5,116.7c-.062-.548-.109-1.1-.155-1.64l-.006-.071v-.007a23.909,23.909,0,0,0-.677-4.514l-.48.179c-2.627.98-5.343,1.993-8.086,2.806a.416.416,0,0,1,.349.2c1.762,3.533,3.392,7.189,4.844,10.866.079.2-.148.382-.387.483a1.406,1.406,0,0,1-.533.113.731.731,0,0,1-.267-.044.315.315,0,0,1-.186-.175c-1.452-3.677-3.082-7.333-4.844-10.866C-378.984,113.923-378.933,113.807-378.785,113.692Zm17.1-6.144h0c-2.281.9-4.27,1.667-6.081,2.332l-.115.043-.058.022-.057.021a22.965,22.965,0,0,1,.7,4.6l.006.073c.047.55.095,1.119.159,1.682a30.288,30.288,0,0,0,1.534,6.05l.1.294c.853-.271,1.916-.608,2.944-.914,2.247-.67,4.273-1.3,6.194-1.939a123.8,123.8,0,0,1-5.324-12.261Zm9.913-4.182h0c-1.408.63-2.861,1.263-4.317,1.881-1.408.6-2.848,1.194-4.281,1.772a123.556,123.556,0,0,0,5.349,12.343c1.674-.571,3.222-1.134,4.731-1.723l2.284-1.027,2.214-1a92.249,92.249,0,0,1-5.98-12.251Zm10.031-4.756c-2.508,1.255-4.561,2.252-6.461,3.137-.466.217-.933.427-1.451.659l-.006,0-.207.093-.012.005-.608.274a92.165,92.165,0,0,0,5.958,12.266l.057-.026.017-.008.034-.015.036-.016.037-.016a2.017,2.017,0,0,1,.548-.144c.43-.209.818-.4,1.184-.584a37.268,37.268,0,0,1,3.6-2.319c.706-.4,1.469-.821,2.472-1.35a38.974,38.974,0,0,1-5.2-11.959Zm8.561-4.492c-2.449,1.344-4.919,2.65-7.343,3.88a.207.207,0,0,1,.127.132,39.485,39.485,0,0,0,2.046,6.118,39.123,39.123,0,0,0,3.023,5.687l.164-.086.159-.082.068-.035c.885-.46,1.8-.933,2.686-1.417.809-.5,1.662-1.023,2.607-1.612a6.918,6.918,0,0,1,1.488-1.2,49.016,49.016,0,0,1-2.729-6.094A57.293,57.293,0,0,0-333.183,94.118Zm-50.145-1.677c-.934.154-1.849.285-2.718.391.139.006.292.012.512.017.782-.118,1.524-.256,2.206-.409Zm1.386-13.736c-1.154.925-2.144,1.761-3.025,2.557a.458.458,0,0,1,.1.129C-384.021,80.6-383.093,79.746-381.942,78.705Zm26.726-32.769h0c-.941.521-1.807,1.008-2.645,1.488-.188.108-.389.225-.615.358l-.007,0-.025.015-.008,0-.394.231.027,0,.082-.013c.843-.5,1.756-1.035,2.958-1.724l.627-.358Zm-15.571,38.825h0a12.069,12.069,0,0,1-1.9-.145,3.835,3.835,0,0,1-3.236-2.476,4.271,4.271,0,0,1-.082-2.422,5.521,5.521,0,0,1,1.281-2.373,10.579,10.579,0,0,1,3.7-2.6,10.482,10.482,0,0,1,3.72-.837,1.253,1.253,0,0,1,.32-.047.838.838,0,0,1,.1.006c.3.035.612.058.941.082l.029,0c1.459.108,3.113.23,4.091,1.37a3.806,3.806,0,0,1,.879,2.433,5.6,5.6,0,0,1-.571,2.533,6.857,6.857,0,0,1-2.864,2.9,10.4,10.4,0,0,1-1.1.544A13.9,13.9,0,0,1-370.787,84.761Zm7.732-5.945h0a2.285,2.285,0,0,1-.665,1.244c.1.646-.591,1.333-1.187,1.8a4.6,4.6,0,0,0,1.433-1.708,4.779,4.779,0,0,0,.42-1.331Zm-4.457-3.586a6.762,6.762,0,0,0-2.655.554,7.605,7.605,0,0,0-.806.4,8.3,8.3,0,0,0-1.232.868,5.31,5.31,0,0,0-1.844,3.49,29.971,29.971,0,0,1,4.192-2.2,26.1,26.1,0,0,1,2.769-1l.231-.068.1-.03c.262-.077.533-.157.81-.234a3.258,3.258,0,0,1,.886-.219,8.346,8.346,0,0,1,1.321-.183A6,6,0,0,0-367,75.251C-367.171,75.238-367.343,75.231-367.512,75.231Zm.288,3.133c-.293.094-.591.2-.913.328a2.656,2.656,0,0,1,.314.051,4.007,4.007,0,0,1,.454-.3l.071-.041.027-.015Zm4.172-.21h0a1.929,1.929,0,0,1,.019.524,2.885,2.885,0,0,0,.015-.5l-.012-.008-.006,0a.045.045,0,0,1-.016-.008Z" transform="translate(699.82 585)" fill="rgba(244,159,134,0.3)" stroke="rgba(0,0,0,0)" stroke-miterlimit="10" stroke-width="1"/>
    <path id="Path_45" data-name="Path 45" d="M715.538,634.49c-21.2-22.364-11.636-23.227-11.375-38.346s-9.8-28.609-9.8-28.609A45.98,45.98,0,0,1,709.231,605.9C707.156,630.715,721.8,637.9,721.8,637.9Z" transform="translate(-409 17)" fill="rgba(244,159,134,0.3)"/>
    <path id="Path_46" data-name="Path 46" d="M711.859,608.943c-17.513-13.831-9.614-14.365-9.4-23.715s-8.095-17.693-8.095-17.693,14,8.385,12.281,23.728,10.385,19.785,10.385,19.785Z" transform="translate(-199.463 -138.978) rotate(16)" fill="rgba(244,159,134,0.3)"/>
  </g>
</svg>
