<svg xmlns="http://www.w3.org/2000/svg" width="272.016" height="196.275" viewBox="0 0 272.016 196.275">
  <g id="Group_92" data-name="Group 92" transform="translate(-51.007 -155.212)">
    <path id="Path_116" data-name="Path 116" d="M451.031,432.593c-.689,0-2.053-4.431-.3-8.551.513-1.216,2-4.053,7.335-7.092,3.553-2.04,7.565-3.485,23.924-6.011,10.55-1.635,13.712-1.77,20.1-3.634a44.943,44.943,0,0,0,11-4.526,39.406,39.406,0,0,0,8.105-6.538,31.167,31.167,0,0,1-9.848,9.645c-2.4,1.527-6.754,3.918-31.368,7.9-8.376,1.351-20.831,3.269-24.816,8a17.143,17.143,0,0,0-4.134,10.807Z" transform="translate(-204.245 -209.031)" fill="#fff" stroke="#fff" stroke-width="2"/>
    <path id="Path_117" data-name="Path 117" d="M494.663,433.982c-2.986.851-16.643,4.444-29.855-1.054a32.44,32.44,0,0,1-10.078-6.5A30.366,30.366,0,0,0,477.412,438.1,32.42,32.42,0,0,0,494.663,433.982Z" transform="translate(-202.541 -198.437)" fill="#fff" stroke="#fff" stroke-width="2"/>
    <path id="Path_118" data-name="Path 118" d="M518.293,408.36A38.012,38.012,0,0,1,489.924,434.8a57.108,57.108,0,0,1-22.7-.27,46.047,46.047,0,0,1-11.7-4.512,45.222,45.222,0,0,0,29.112,7.9C501.406,436.27,515.807,424.314,518.293,408.36Z" transform="translate(-202.26 -204.778)" fill="#fff" stroke="#fff" stroke-width="2"/>
    <path id="Path_119" data-name="Path 119" d="M517.76,393.64a39.257,39.257,0,0,1-11.01,18.913c-11.82,11.537-27.707,14.536-32.611,15.306a53.649,53.649,0,0,0,22.709-5.336A37.015,37.015,0,0,0,517.76,393.64Z" transform="translate(-195.729 -209.943)" fill="#fff" stroke="#fff" stroke-width="2"/>
    <path id="Path_120" data-name="Path 120" d="M380.5,433.663c.689,0,2.053-4.431.311-8.551-.527-1.216-2.013-4.053-7.349-7.092-3.553-2.04-7.565-3.485-23.924-6.012-10.551-1.635-13.712-1.77-20.1-3.634a44.4,44.4,0,0,1-11-4.539,39.1,39.1,0,0,1-8.105-6.525,31.182,31.182,0,0,0,9.848,9.645c2.4,1.526,6.754,3.9,31.368,7.9,8.376,1.351,20.831,3.269,24.816,8a17.146,17.146,0,0,1,4.134,10.807Z" transform="translate(-253.21 -208.655)" fill="#fff" stroke="#fff" stroke-width="2"/>
    <path id="Path_121" data-name="Path 121" d="M328.73,435.081c2.985.851,16.643,4.444,29.855-1.054a32.44,32.44,0,0,0,10.078-6.5A30.38,30.38,0,0,1,345.981,439.2,32.42,32.42,0,0,1,328.73,435.081Z" transform="translate(-246.753 -198.051)" fill="#fff" stroke="#fff" stroke-width="2"/>
    <path id="Path_122" data-name="Path 122" d="M310.98,409.43a38.012,38.012,0,0,0,28.369,26.437,57.359,57.359,0,0,0,22.7-.27,46.411,46.411,0,0,0,11.712-4.512c-2.242,1.567-13.833,9.348-29.125,7.9C327.866,437.394,313.466,425.384,310.98,409.43Z" transform="translate(-252.982 -204.402)" fill="#fff" stroke="#fff" stroke-width="2"/>
    <path id="Path_123" data-name="Path 123" d="M306.54,394.71a39.313,39.313,0,0,0,11.023,18.913c11.807,11.537,27.693,14.536,32.6,15.306a53.654,53.654,0,0,1-22.709-5.228A37.057,37.057,0,0,1,306.54,394.71Z" transform="translate(-254.54 -209.568)" fill="#fff" stroke="#fff" stroke-width="2"/>
    <circle id="Ellipse_18" data-name="Ellipse 18" cx="12.779" cy="12.779" r="12.779" transform="translate(146.022 203.488)" fill="none" stroke="#fff" stroke-miterlimit="10" stroke-width="2"/>
    <circle id="Ellipse_19" data-name="Ellipse 19" cx="12.779" cy="12.779" r="12.779" transform="translate(200.382 203.488)" fill="none" stroke="#fff" stroke-miterlimit="10" stroke-width="2"/>
    <circle id="Ellipse_20" data-name="Ellipse 20" cx="8.808" cy="8.808" r="8.808" transform="translate(149.994 207.459)" fill="none" stroke="#fff" stroke-miterlimit="10" stroke-width="2"/>
    <circle id="Ellipse_21" data-name="Ellipse 21" cx="2.364" cy="2.364" r="2.364" transform="translate(153.196 209.459)" fill="#fff"/>
    <circle id="Ellipse_22" data-name="Ellipse 22" cx="8.808" cy="8.808" r="8.808" transform="translate(204.354 207.459)" fill="none" stroke="#fff" stroke-miterlimit="10" stroke-width="2"/>
    <circle id="Ellipse_23" data-name="Ellipse 23" cx="2.364" cy="2.364" r="2.364" transform="translate(215.053 209.459)" fill="#fff"/>
    <g id="Group_90" data-name="Group 90" transform="translate(174.089 262.049)">
      <path id="Path_124" data-name="Path 124" d="M400.573,451.64a14.52,14.52,0,0,0,0,13.509" transform="translate(-396.218 -451.64)" fill="#fff"/>
      <path id="Path_125" data-name="Path 125" d="M400.14,451.64a14.482,14.482,0,0,1,0,13.509" transform="translate(-395.785 -451.64)" fill="#fff"/>
      <path id="Path_126" data-name="Path 126" d="M403.063,451.64a14.52,14.52,0,0,0,0,13.509" transform="translate(-395.344 -451.64)" fill="#fff"/>
      <path id="Path_127" data-name="Path 127" d="M402.63,451.64a14.481,14.481,0,0,1,0,13.509" transform="translate(-394.911 -451.64)" fill="#fff"/>
      <path id="Path_128" data-name="Path 128" d="M398.583,451.64a14.52,14.52,0,0,0,0,13.509" transform="translate(-396.916 -451.64)" fill="#fff"/>
      <path id="Path_129" data-name="Path 129" d="M398.15,451.64a14.52,14.52,0,0,1,0,13.509" transform="translate(-396.483 -451.64)" fill="#fff"/>
    </g>
    <g id="Group_89" data-name="Group 89" transform="translate(189.638 262.049)">
      <path id="Path_130" data-name="Path 130" d="M412.093,451.64a14.52,14.52,0,0,0,0,13.509" transform="translate(-407.724 -451.64)" fill="#fff"/>
      <path id="Path_131" data-name="Path 131" d="M411.66,451.64a14.52,14.52,0,0,1,0,13.509" transform="translate(-407.292 -451.64)" fill="#fff"/>
      <path id="Path_132" data-name="Path 132" d="M414.583,451.64a14.521,14.521,0,0,0,0,13.509" transform="translate(-406.851 -451.64)" fill="#fff"/>
      <path id="Path_133" data-name="Path 133" d="M414.15,451.64a14.52,14.52,0,0,1,0,13.509" transform="translate(-406.418 -451.64)" fill="#fff"/>
      <path id="Path_134" data-name="Path 134" d="M410.093,451.64a14.52,14.52,0,0,0,0,13.509" transform="translate(-408.426 -451.64)" fill="#fff"/>
      <path id="Path_135" data-name="Path 135" d="M409.66,451.64a14.482,14.482,0,0,1,0,13.509" transform="translate(-407.993 -451.64)" fill="#fff"/>
    </g>
    <path id="Path_136" data-name="Path 136" d="M386.355,454.49h67.869l.54,11.2H386.4v-11.2L373.63,469.9V520.7l29.1,16.386V506.013l-19.493-36.474,3.161-14.995" transform="translate(-230.999 -188.591)" fill="none" stroke="#fff" stroke-miterlimit="10" stroke-width="3.5"/>
    <path id="Path_137" data-name="Path 137" d="M440.6,462.78q8.186,17.98,16.4,35.947l-.486,29.22L395.14,534.2" transform="translate(-223.451 -185.682)" fill="none" stroke="#fff" stroke-miterlimit="10" stroke-width="3.5"/>
    <path id="Path_138" data-name="Path 138" d="M457,489.39l-61.858,4.323" transform="translate(-223.451 -176.345)" fill="none" stroke="#fff" stroke-miterlimit="10" stroke-width="3.5"/>
    <g id="Group_91" data-name="Group 91" transform="translate(0 10)">
      <path id="Path_139" data-name="Path 139" d="M418.986,448.065s-7.187-34.907-30.544-34.907-20.75-38.028-20.75-38.028a79.7,79.7,0,0,0,100.358,0s5,37.717-19.858,38.028-29.206,34.907-29.206,34.907" transform="translate(-233.112 -226.438)" fill="none" stroke="#fff" stroke-miterlimit="10" stroke-width="3.5"/>
      <path id="Path_140" data-name="Path 140" d="M385.716,477.245a42.763,42.763,0,0,1-6.606-6.417c-20.2-24.411-3.553-61.8,0-69.369" transform="translate(-232.521 -217.199)" fill="none" stroke="#fff" stroke-miterlimit="10" stroke-width="3.5"/>
      <path id="Path_141" data-name="Path 141" d="M435.214,401.46c2.837,4.985,19.439,35.042,6.417,61.912a49.693,49.693,0,0,1-8.281,12.036" transform="translate(-210.043 -217.199)" fill="none" stroke="#fff" stroke-miterlimit="10" stroke-width="3.5"/>
    </g>
  </g>
</svg>
