<?xml version="1.0" encoding="utf-8"?>
<!-- Generator: Adobe Illustrator 24.3.0, SVG Export Plug-In . SVG Version: 6.00 Build 0)  -->
<svg version="1.1" id="Layer_1" xmlns="http://www.w3.org/2000/svg" xmlns:xlink="http://www.w3.org/1999/xlink" x="0px" y="0px"
	 viewBox="0 0 238.4 220.2" style="enable-background:new 0 0 238.4 220.2;" xml:space="preserve">
<style type="text/css">
	.st0{fill:#FFFFFF;}
	.st1{fill:#FBBBB1;}
	.st2{fill:#FAAA9D;}
	.st3{fill:none;stroke:#F6725B;stroke-width:6;stroke-miterlimit:10;}
</style>
<g id="Group_121">
	<g id="Group_134">
		<g id="Group_133">
			<path id="Path_138" class="st0" d="M223.4,150.4l-55.9-2.1h-0.1c-1-6.3-1.7-10.3-1.7-10.3v-1c12.7-0.1,24.9-0.5,37.2-0.9
				c5.8-0.1,11.8-0.3,17.8-0.3l11.4,14.9L223.4,150.4z"/>
			<path id="Path_139" class="st0" d="M223.4,150.4c0.6,3,11.2,54,0,58.3c-11.5,4.4-54,0-54,0c3.9-16.2,0.4-45-2-60.4h0.1
				L223.4,150.4z"/>
			<path id="Path_140" class="st1" d="M113.2,130.7L113.2,130.7c-2.1-0.2-4.2-0.3-6.3-0.3c-34.8,0-63,28.2-63,63l0,0
				c0,1.4,0.1,2.8,0.2,4.2l0,0c-25-27.5-41.1-71-41.1-120c0-6.2,0.3-12.2,0.8-18.2C5.3,40.2,9.6,21.3,16.6,3.3h0.1
				C30.2,5.7,40.9,16,43.8,29.4l0,0c1.2-0.6,2.5-1.2,3.8-1.9c37.7-17.5,81.1-17.5,118.8,0c3.5-14.3,16.2-24.4,30.9-24.6
				c7,18.1,11.4,37.1,12.9,56.5l0,0c0.5,6,0.8,12.1,0.8,18.2c0.1,19.7-2.6,39.2-8,58.1v0.3c-12.4,0.3-24.5,0.8-37.2,0.9v1.1
				c0,0-2.4,9.6-5.5,21.3h-0.2c-0.2-0.4-0.5-0.8-0.8-1.1c0,0,0-0.1-0.1-0.1l0,0c-0.2-0.4-0.5-0.7-0.7-1c-2.3-3.3-4.9-6.3-7.8-9.1
				l0,0l-0.6-0.6l-0.6-0.5c-0.1-0.1-0.1-0.2-0.2-0.2l0,0c-0.1-0.1-0.2-0.2-0.3-0.3c-0.3-0.3-0.6-0.6-1-0.9l-0.4-0.4
				c-0.3-0.3-0.7-0.6-1-0.9s-0.9-0.7-1.4-1.1c-0.1-0.1-0.2-0.1-0.3-0.2c-0.4-0.3-0.9-0.7-1.4-1c-0.3-0.2-0.6-0.4-0.9-0.6
				c-0.5-0.4-1-0.7-1.5-1c-0.3-0.2-0.5-0.4-0.8-0.5s-0.8-0.5-1.2-0.7s-0.5-0.3-0.8-0.5l-0.1-0.1l0,0c-0.3-0.2-0.7-0.4-1.1-0.6l0,0
				c-0.6-0.3-1.1-0.6-1.7-0.9c-1.1-0.6-2.3-1.1-3.5-1.6c-0.5-0.2-1-0.4-1.4-0.6l-0.3-0.1c-0.6-0.2-1.2-0.5-1.8-0.7l0,0
				c-2-0.7-4-1.3-6.1-1.9c-0.4-0.1-0.9-0.2-1.3-0.3c-1.8-0.4-3.7-0.8-5.6-1C114.5,130.8,113.9,130.8,113.2,130.7z M197.5,81.5
				c-0.8-12.4-1.6-22.8-2.3-30.8C194,36.9,192.4,22.3,189,22c-2.1-0.2-4.2,5-5.7,4.4c-1.2-0.5,0.1-4.2-1.3-5.1
				c-1.9-1.3-6.5,5.7-13.4,9.7c-2.5,1.6-5.4,2.5-8.4,2.8c-3.1,0.2-6.1-0.1-9.1-0.9c-25.6,0-46.4,21.8-46.4,48.7
				c0-26.9-20.8-48.6-46.4-48.6c-2.9,0.8-6,1.1-9.1,0.9c-1.4-0.1-2.7-0.4-4-0.8c-9.4-3-15.5-13.3-17.8-11.8c-1.4,0.9,0,4.6-1.3,5.1
				c-1.5,0.6-3.6-4.6-5.7-4.4c-3.4,0.3-5,14.9-6.3,28.7c-0.7,8-1.6,18.5-2.3,30.8c0,26.9,20.8,48.7,46.3,48.7
				c17.2,0,33.1-11,41.1-25.6l0.1,0.1l5.5,7.1l0,0l5.6-6.5l0,0c7.8,15.2,23.4,24.8,40.5,25C176.7,130.2,197.5,108.4,197.5,81.5
				L197.5,81.5z"/>
			<path id="Path_141" class="st0" d="M195.2,50.6c0.7,8,1.6,18.5,2.3,30.8c0,26.9-20.8,48.7-46.4,48.7c-17.1-0.2-32.6-9.8-40.4-25
				l4.9-5.7l-10.5-12.2l0,0c-0.2-1.9-0.3-3.8-0.3-5.7l0,0c0-26.9,20.8-48.7,46.4-48.7c3,0.8,6,1.1,9.1,0.9c3-0.3,5.8-1.2,8.4-2.8
				c6.9-4.1,11.5-11,13.4-9.7c1.4,0.9,0,4.6,1.3,5.1c1.5,0.6,3.6-4.6,5.7-4.4C192.4,22.2,194,36.8,195.2,50.6z M189.6,81.4
				c0-19.8-16.1-35.9-35.9-35.9s-35.9,16.1-35.9,35.9s16.1,35.9,35.9,35.9l0,0l0,0C173.6,117.3,189.6,101.2,189.6,81.4L189.6,81.4z"
				/>
			<circle id="Ellipse_27" class="st0" cx="153.8" cy="81.4" r="35.9"/>
			<path id="Path_142" class="st1" d="M152,207.6c-2.2-0.8-3.9-1.9-4.5-3.6c-0.6-1.9-0.3-4,0.7-5.8c3.3-7.4,8.2-24.7,12-38.8
				c3.1-11.7,5.5-21.3,5.5-21.3s0.8,4,1.7,10.3c2.4,15.3,5.9,44.1,2,60.4l0,0C165.2,209,157.2,209.4,152,207.6z"/>
			<path id="Path_143" class="st0" d="M160,159.3h0.2c-3.8,14.2-8.7,31.4-12,38.8c-1,1.8-1.3,3.8-0.7,5.8c0.7,1.7,2.4,2.9,4.5,3.6
				c-35.2,15.7-76.1,11.9-107.9-10c-0.1-1.4-0.2-2.8-0.2-4.2c0-34.8,28.2-63,63-63l0,0c2.1,0,4.1,0.1,6.2,0.3h0.1
				c0.6,0.1,1.3,0.1,1.9,0.2c1.9,0.2,3.8,0.6,5.6,1c0.4,0.1,0.9,0.2,1.3,0.3c2.1,0.5,4.1,1.1,6.1,1.9l0,0c0.6,0.2,1.2,0.4,1.8,0.7
				l0.3,0.1c0.5,0.2,1,0.4,1.4,0.6c1.2,0.5,2.3,1,3.5,1.6c0.6,0.3,1.1,0.6,1.7,0.9l0,0c0.4,0.2,0.8,0.4,1.1,0.6l0,0l0.1,0.1l0.8,0.5
				c0.4,0.2,0.8,0.5,1.2,0.7s0.5,0.3,0.8,0.5c0.5,0.3,1,0.6,1.5,1c0.3,0.2,0.6,0.4,0.9,0.6c0.5,0.3,0.9,0.6,1.4,1
				c0.1,0.1,0.2,0.1,0.3,0.2c0.5,0.4,0.9,0.7,1.4,1.1c0.3,0.3,0.7,0.6,1,0.9l0.4,0.4l1,0.9c0.1,0.1,0.2,0.2,0.3,0.3l0,0
				c0.1,0.1,0.2,0.1,0.2,0.2l0.6,0.5l0.6,0.6l0,0c2.9,2.8,5.5,5.8,7.8,9.1c0.2,0.3,0.5,0.6,0.7,1l0,0c0,0,0,0,0.1,0.1
				C159.5,158.6,159.8,158.9,160,159.3z"/>
			<path id="Path_144" class="st2" d="M147.9,145.5c0.3,0.3,0.7,0.6,1,0.9L147.9,145.5z"/>
			<path id="Path_145" class="st2" d="M146.5,144.3c0.3,0.3,0.7,0.6,1,0.9C147.1,144.9,146.8,144.6,146.5,144.3z"/>
			<path id="Path_146" class="st2" d="M143.4,142c0.5,0.3,0.9,0.6,1.4,1C144.3,142.7,143.9,142.4,143.4,142z"/>
			<path id="Path_147" class="st2" d="M141.1,140.4c0.5,0.3,1,0.6,1.5,1C142.1,141.1,141.6,140.8,141.1,140.4z"/>
			<path id="Path_148" class="st2" d="M139.1,139.2l-0.8-0.5C138.5,138.8,138.8,139,139.1,139.2z"/>
			<path id="Path_149" class="st2" d="M130.4,134.9c0.5,0.2,1,0.4,1.4,0.6C131.4,135.3,130.9,135.1,130.4,134.9z"/>
			<path id="Path_150" class="st1" d="M105.1,87.2l10.4,12.2l-4.8,5.7l0,0l-5.6,6.5V87.2z"/>
			<path id="Path_151" class="st0" d="M104.8,81.5c0,1.9,0.1,3.8,0.3,5.7l0,0l-9.9,11.6l4.4,5.7c-8,14.6-23.9,25.6-41.1,25.6
				c-25.6,0-46.3-21.8-46.3-48.7c0.7-12.4,1.6-22.8,2.3-30.8c1.2-13.8,2.8-28.4,6.3-28.7c2.1-0.2,4.2,5,5.7,4.4
				c1.2-0.5-0.1-4.2,1.3-5.1C29.9,19.8,36,30,45.4,33c1.3,0.4,2.6,0.7,4,0.8c3.1,0.2,6.1-0.1,9.1-0.9
				C84.1,32.9,104.9,54.6,104.8,81.5L104.8,81.5z M92.5,81.4L92.5,81.4c0-19.8-16.1-35.9-35.9-35.9S20.8,61.6,20.8,81.4
				s16.1,35.9,35.9,35.9S92.5,101.2,92.5,81.4L92.5,81.4L92.5,81.4z"/>
			<path id="Path_152" class="st1" d="M99.6,104.5l-4.4-5.7l9.9-11.6v24.5l0,0l-5.5-7.1V104.5z"/>
			<path id="Path_153" class="st0" d="M92.5,81.4L92.5,81.4c0,19.8-16.1,35.9-35.9,35.9s-35.9-16.1-35.9-35.9s16.1-35.9,35.9-35.9
				C76.5,45.5,92.5,61.6,92.5,81.4L92.5,81.4L92.5,81.4z"/>
		</g>
	</g>
</g>
<g id="hatch">
	<g id="Group_122">
		<g id="Group_121-2">
			<path id="Path_127" class="st3" d="M159.2,158.1c-0.2-0.3-0.5-0.7-0.7-1C158.7,157.4,158.9,157.8,159.2,158.1z"/>
			<path id="Path_128" class="st3" d="M122.1,132.2l-1.3-0.3L122.1,132.2z"/>
			<path id="Path_129" class="st3" d="M16.7,3C9.6,21.1,5.3,40.1,3.8,59.5"/>
			<path id="Path_130" class="st3" d="M210.2,59.5c-1.5-19.4-5.9-38.4-12.9-56.5l0,0"/>
			<path id="Path_131" class="st3" d="M43.3,29.7l0.4-0.2c1.2-0.6,2.5-1.2,3.9-1.9c37.7-17.5,81.1-17.5,118.8,0l0,0"/>
			<path id="Path_132" class="st3" d="M202.9,135.8c5.4-18.9,8.1-38.5,8-58.1c0-6.2-0.2-12.2-0.8-18.2"/>
			<path id="Path_133" class="st3" d="M158.5,157.1c0.2,0.3,0.5,0.7,0.7,1"/>
			<path id="Path_134" class="st3" d="M149.4,146.9c0.4,0.4,0.8,0.8,1.2,1.1"/>
			<path id="Path_135" class="st3" d="M145.1,143.2c0.5,0.4,0.9,0.7,1.4,1.1s1,0.8,1.5,1.2s0.9,0.8,1.3,1.2"/>
			<path id="Path_136" class="st3" d="M140.3,139.9c1.1,0.7,2.1,1.4,3.2,2.1l1.4,1"/>
			<path id="Path_137" class="st3" d="M138.1,138.6l1,0.6"/>
			<path id="Path_138-2" class="st3" d="M135.3,137.1c0.6,0.3,1.1,0.6,1.7,0.9"/>
			<path id="Path_139-2" class="st3" d="M128.2,134.1c0.6,0.2,1.2,0.4,1.8,0.7s1.2,0.5,1.8,0.7"/>
			<path id="Path_140-2" class="st3" d="M120.8,131.9c0.4,0.1,0.9,0.2,1.3,0.3"/>
			<path id="Path_141-2" class="st3" d="M113.1,130.7c0.7,0.1,1.4,0.1,2,0.2"/>
			<path id="Path_142-2" class="st3" d="M3.8,59.5c-0.5,6-0.8,12-0.8,18.2c0,49,16.1,92.5,41.1,120"/>
			<path id="Path_143-2" class="st3" d="M160,159.3c-0.2-0.4-0.5-0.8-0.8-1.1c0,0,0-0.1-0.1-0.1c-0.2-0.4-0.5-0.7-0.7-1
				c-2.3-3.3-4.9-6.3-7.8-9.1c-0.4-0.4-0.8-0.8-1.2-1.1c-0.1-0.1-0.1-0.1-0.2-0.2c-0.4-0.4-0.9-0.8-1.3-1.2s-1-0.8-1.5-1.2
				s-0.9-0.7-1.4-1.1c-0.1-0.1-0.2-0.1-0.3-0.2c-0.4-0.3-0.9-0.7-1.4-1c-1-0.7-2.1-1.5-3.2-2.1c-0.4-0.2-0.8-0.5-1.2-0.7
				s-0.6-0.4-1-0.6L137,138c-0.5-0.3-1.1-0.6-1.7-0.9c-1.1-0.6-2.3-1.1-3.5-1.6c-0.6-0.3-1.2-0.5-1.8-0.7s-1.2-0.5-1.8-0.7
				c-2-0.7-4.1-1.3-6.1-1.9c-0.4-0.1-0.9-0.2-1.3-0.3c-1.8-0.4-3.7-0.8-5.6-1c-0.7-0.1-1.4-0.2-2-0.2c-2-0.2-4.1-0.3-6.2-0.3
				c-34.8,0-63,28.2-63,63c0,1.4,0.1,2.8,0.2,4.2c31.8,21.9,72.7,25.7,107.9,9.9"/>
			<path id="Path_144-2" class="st3" d="M16.6,3.4c13.5,2.3,24.3,12.6,27.2,26"/>
			<path id="Path_145-2" class="st3" d="M197.8,3h-0.5c-14.7,0.2-27.4,10.3-30.9,24.6l0,0"/>
			<path id="Path_146-2" class="st3" d="M92.5,81.4c0,19.8-16.1,35.9-35.9,35.9s-35.9-16.1-35.9-35.9s16.1-35.9,35.9-35.9
				C76.5,45.5,92.5,61.6,92.5,81.4z"/>
			<circle id="Ellipse_25" class="st3" cx="153.8" cy="81.4" r="35.9"/>
			<path id="Path_147-2" class="st3" d="M33.8,92.6C33.8,80,44,69.7,56.7,69.7c12.6,0,22.9,10.2,22.9,22.9"/>
			<path id="Path_148-2" class="st3" d="M130.9,92.6c0-12.6,10.2-22.9,22.9-22.9c12.6,0,22.9,10.2,22.9,22.9l0,0l0,0"/>
			<line id="Line_40" class="st3" x1="105.1" y1="87.2" x2="105.1" y2="111.7"/>
			<path id="Path_149-2" class="st3" d="M105.1,87.2l-9.9,11.6l4.5,5.8l5.5,7.1l5.6-6.5"/>
			<path id="Path_150-2" class="st3" d="M110.8,105.2c7.8,15.2,23.4,24.8,40.5,25c25.6,0,46.4-21.8,46.4-48.7
				c-0.8-12.4-1.6-22.9-2.3-30.9c-1.2-13.8-2.8-28.4-6.2-28.7c-2.1-0.2-4.2,5-5.7,4.4c-1.2-0.5,0.1-4.2-1.3-5.1
				c-1.9-1.3-6.5,5.7-13.4,9.7c-2.5,1.6-5.4,2.5-8.4,2.8c-3.1,0.2-6.1-0.1-9.1-0.9c-25.6,0-46.4,21.8-46.4,48.6
				c0,1.9,0.1,3.8,0.3,5.7l0,0"/>
			<path id="Path_151-2" class="st3" d="M110.8,105.2l4.9-5.7l-10.5-12.2"/>
			<path id="Path_152-2" class="st3" d="M99.9,104c-7.9,14.9-24,26.1-41.4,26.1c-25.6,0-46.3-21.8-46.3-48.7
				c0.7-12.4,1.6-22.8,2.3-30.8c1.2-13.8,2.8-28.4,6.3-28.7c2.1-0.2,4.2,5,5.7,4.4c1.2-0.5-0.1-4.2,1.3-5.1C29.9,19.7,36,30,45.4,33
				c1.3,0.4,2.6,0.7,4,0.8c3.1,0.2,6.1-0.1,9.1-0.9c25.6,0,46.4,21.8,46.4,48.7c0,1.9-0.1,3.8-0.3,5.8"/>
			<path id="Path_153-2" class="st3" d="M91.5,173.3c-0.8,2.2-3.3,3.4-5.5,2.6c-1.1-0.4-2-1.2-2.5-2.3"/>
			<path id="Path_154" class="st3" d="M105.9,173.3c-0.8,2.3-3.2,3.5-5.5,2.7c-1.1-0.4-2.1-1.2-2.5-2.3"/>
			<path id="Path_155" class="st3" d="M117.6,173.3c-0.8,2.2-3.3,3.4-5.5,2.6c-1.1-0.4-2-1.2-2.5-2.3"/>
			<path id="Path_156" class="st3" d="M129.6,171.8c-0.8,2.3-3.2,3.5-5.5,2.7c-1.2-0.4-2.1-1.3-2.6-2.4"/>
			<path id="Path_157" class="st3" d="M87.2,181.1c-0.8,2.3-3.3,3.5-5.5,2.7c-1.1-0.4-2.1-1.2-2.5-2.3"/>
			<path id="Path_158" class="st3" d="M100.2,181.1c-0.8,2.2-3.3,3.4-5.5,2.6c-1.1-0.4-2-1.2-2.5-2.3"/>
			<path id="Path_159" class="st3" d="M112.8,179.7c-0.8,2.2-3.3,3.4-5.5,2.6c-1.1-0.4-2-1.2-2.5-2.3"/>
			<path id="Path_160" class="st3" d="M125.6,179.7c-0.8,2.2-3.3,3.4-5.5,2.6c-1.1-0.4-2-1.2-2.5-2.3"/>
			<path id="Path_161" class="st3" d="M104.1,189.7c-0.8,2.2-3.3,3.4-5.5,2.6c-1.1-0.4-2-1.2-2.5-2.3"/>
			<path id="Path_162" class="st3" d="M116.9,188.3c-0.8,2.3-3.2,3.5-5.5,2.7c-1.1-0.4-2.1-1.2-2.5-2.3"/>
			<path id="Path_163" class="st3" d="M137.6,179.7c-0.8,2.3-3.2,3.5-5.5,2.7c-1.2-0.4-2.1-1.3-2.6-2.4"/>
			<path id="Path_164" class="st3" d="M223.4,150.3c0,0,11.5,54,0,58.4s-54,0-54,0c5.5-22.9-3.7-70.6-3.7-70.6s-11.5,46.6-17.5,60.1
				c-1,1.7-1.3,3.8-0.7,5.8c2.4,5.8,16,5.2,22,4.7"/>
			<path id="Path_165" class="st3" d="M167.5,148.3l64.7,2.4l-11.4-14.9c-18.9,0.1-36.6,1-55.5,1.1"/>
		</g>
	</g>
</g>
</svg>
