<svg xmlns="http://www.w3.org/2000/svg" width="281.886" height="182.164" viewBox="0 0 281.886 182.164">
  <g id="Group_83" data-name="Group 83" transform="translate(-323.349 -353.724)">
    <circle id="Ellipse_16" data-name="Ellipse 16" cx="13.934" cy="13.934" r="13.934" transform="translate(423.143 399.228)" fill="none" stroke="#fff" stroke-miterlimit="10" stroke-width="3"/>
    <circle id="Ellipse_17" data-name="Ellipse 17" cx="13.934" cy="13.934" r="13.934" transform="translate(476.86 399.228)" fill="none" stroke="#fff" stroke-miterlimit="10" stroke-width="3"/>
    <path id="Path_110" data-name="Path 110" d="M9.605,0A9.605,9.605,0,1,1,0,9.605,9.605,9.605,0,0,1,9.605,0Z" transform="translate(481.188 403.557)" fill="none" stroke="#fff" stroke-width="3"/>
    <g id="Group_80" data-name="Group 80" transform="translate(386.297 353.928)">
      <path id="Path_96" data-name="Path 96" d="M414.117,465.985c-24.481-33.81-27.107-71.579-9.381-91.585,6.6-7.446,19.708-16.6,36.422-16.634,18.17-.033,31.754,10.737,38.079,18.244,17.352,20.6,14.54,57.584-9.381,89.975" transform="translate(-363.369 -352.642)" fill="none" stroke="#fff" stroke-miterlimit="10" stroke-width="5"/>
      <path id="Path_97" data-name="Path 97" d="M381.56,353.928S378.357,393,407.177,393s37.685,35.864,37.685,35.864" transform="translate(-367.33 -353.928)" fill="none" stroke="#fff" stroke-miterlimit="10" stroke-width="5"/>
      <path id="Path_98" data-name="Path 98" d="M492.182,353.928S495.385,393,466.565,393,428.88,428.86,428.88,428.86" transform="translate(-351.44 -353.928)" fill="none" stroke="#fff" stroke-miterlimit="10" stroke-width="5"/>
      <path id="Path_99" data-name="Path 99" d="M370.875,438.825c7.354,40.008,43.192,68.156,82.036,65.985,30.951-1.729,58.125-22.389,69.175-51.7a81.516,81.516,0,0,0,3.944-14.281Z" transform="translate(-370.875 -325.482)" fill="none" stroke="#fff" stroke-miterlimit="10" stroke-width="5"/>
    </g>
    <path id="Path_100" data-name="Path 100" d="M427.129,486.527a54.321,54.321,0,0,1-11.45-3.088c-14.2-5.562-22.6-15.831-26.553-21.557a1.584,1.584,0,0,1,.581-1.622,1.659,1.659,0,0,1,2.25.644c4.372,5.893,12.759,15.245,26.207,20.426a55.026,55.026,0,0,0,9.475,2.7,1.368,1.368,0,1,1-.51,2.494Z" transform="translate(21.526 35.554)" fill="#fff"/>
    <path id="Path_101" data-name="Path 101" d="M389.748,459.234a1.352,1.352,0,0,1-.483,1.347,1.333,1.333,0,0,1-1.67-.359,12.588,12.588,0,0,1-1.124-1.689,3.807,3.807,0,0,1-.713-1.869c0-.093.025-1.053.661-1.3a1.218,1.218,0,0,1,.981.134c.509.292.7.79,1.247,1.82C388.885,457.765,389.252,458.432,389.748,459.234Z" transform="translate(20.408 33.966)" fill="#fff"/>
    <g id="Group_81" data-name="Group 81" transform="translate(528.185 383.646)">
      <path id="Path_102" data-name="Path 102" d="M478.3,414.718c-.678,0-2.033-4.379-.3-8.452.514-1.208,1.979-3.985,7.252-7.014,3.509-2.016,7.483-3.443,23.647-5.937,10.431-1.61,13.548-1.753,19.87-3.594a44.262,44.262,0,0,0,10.867-4.478,38.766,38.766,0,0,0,8.009-6.459,30.69,30.69,0,0,1-9.737,9.531c-2.378,1.515-6.723,3.87-31,7.811-8.283,1.344-20.589,3.236-24.528,7.914a19.65,19.65,0,0,0-2.522,3.924A20.313,20.313,0,0,0,478.3,414.718Z" transform="translate(-477.153 -375.319)" fill="#fff" stroke="#fff" stroke-linecap="round" stroke-linejoin="round" stroke-width="3"/>
      <path id="Path_103" data-name="Path 103" d="M521.514,416.47c-2.953.838-16.449,4.391-29.5-1.037a32.475,32.475,0,0,1-9.969-6.423,30.037,30.037,0,0,0,22.418,11.526A32.146,32.146,0,0,0,521.514,416.47Z" transform="translate(-475.516 -365.191)" fill="#fff" stroke="#fff" stroke-linecap="round" stroke-linejoin="round" stroke-width="3"/>
      <path id="Path_104" data-name="Path 104" d="M544.867,390.9a37.583,37.583,0,0,1-28.027,26.137c-10.835,2.392-21.952-.16-22.42-.271a45.593,45.593,0,0,1-11.572-4.462c2.216,1.547,13.666,9.237,28.779,7.807C528.183,418.548,542.409,406.672,544.867,390.9Z" transform="translate(-475.245 -371.257)" fill="#fff" stroke="#fff" stroke-linecap="round" stroke-linejoin="round" stroke-width="3"/>
      <path id="Path_105" data-name="Path 105" d="M544.569,376.188a38.828,38.828,0,0,1-10.894,18.632c-11.673,11.4-27.378,14.367-32.222,15.126a52.992,52.992,0,0,0,22.444-5.168C542.349,395.6,544.355,378.412,544.569,376.188Z" transform="translate(-469.012 -376.188)" fill="#fff" stroke="#fff" stroke-linecap="round" stroke-linejoin="round" stroke-width="3"/>
    </g>
    <g id="Group_82" data-name="Group 82" transform="translate(324.849 385.075)">
      <path id="Path_106" data-name="Path 106" d="M397.99,415.787c.677,0,2.033-4.378.3-8.452-.514-1.207-1.979-3.984-7.253-7.014-3.509-2.016-7.482-3.443-23.645-5.937-10.431-1.61-13.548-1.753-19.87-3.594a44.224,44.224,0,0,1-10.869-4.478,38.666,38.666,0,0,1-8.009-6.459,30.726,30.726,0,0,0,9.737,9.531c2.379,1.515,6.723,3.872,31,7.811,8.284,1.346,20.591,3.236,24.528,7.914a19.621,19.621,0,0,1,2.523,3.924A20.354,20.354,0,0,1,397.99,415.787Z" transform="translate(-323.579 -376.389)" fill="#faf8f8" stroke="#fff" stroke-linecap="round" stroke-linejoin="round" stroke-width="3"/>
      <path id="Path_107" data-name="Path 107" d="M346.99,417.541c2.953.838,16.448,4.39,29.5-1.039a32.475,32.475,0,0,0,9.969-6.423A30.032,30.032,0,0,1,364.045,421.6,32.149,32.149,0,0,1,346.99,417.541Z" transform="translate(-317.43 -366.261)" fill="#faf8f8" stroke="#fff" stroke-linecap="round" stroke-linejoin="round" stroke-width="3"/>
      <path id="Path_108" data-name="Path 108" d="M329.3,391.973a37.576,37.576,0,0,0,28.026,26.137c10.837,2.392,21.954-.159,22.421-.271a45.506,45.506,0,0,0,11.571-4.462c-2.215,1.549-13.664,9.237-28.777,7.807C345.978,419.618,331.752,407.741,329.3,391.973Z" transform="translate(-323.359 -372.328)" fill="#faf8f8" stroke="#fff" stroke-linecap="round" stroke-linejoin="round" stroke-width="3"/>
      <path id="Path_109" data-name="Path 109" d="M324.849,377.258a38.838,38.838,0,0,0,10.893,18.631c11.674,11.4,27.378,14.367,32.223,15.126a52.972,52.972,0,0,1-22.444-5.168C327.069,396.667,325.061,379.481,324.849,377.258Z" transform="translate(-324.849 -377.258)" fill="#faf8f8" stroke="#fff" stroke-linecap="round" stroke-linejoin="round" stroke-width="3"/>
    </g>
    <path id="Path_112" data-name="Path 112" d="M9.605,0A9.605,9.605,0,1,1,0,9.605,9.605,9.605,0,0,1,9.605,0Z" transform="translate(427.188 403.557)" fill="none" stroke="#fff" stroke-width="3"/>
    <path id="Path_113" data-name="Path 113" d="M2.2,0A2.2,2.2,0,1,1,0,2.2,2.2,2.2,0,0,1,2.2,0Z" transform="translate(430.569 406.938)" fill="#fff"/>
    <path id="Path_114" data-name="Path 114" d="M2.2,0A2.2,2.2,0,1,1,0,2.2,2.2,2.2,0,0,1,2.2,0Z" transform="translate(492.569 406.938)" fill="#fff"/>
  </g>
</svg>
