<svg version="1" xmlns="http://www.w3.org/2000/svg" width="1269.333" height="1269.333" viewBox="0 0 952.000000 952.000000"><path d="M765.9 39c-28.5 5-52.6 17.2-73.2 37-14.8 14.1-24.5 27.9-32.4 45.9-2.4 5.5-3.8 7.6-5 7.5-1-.1-6.2-2-11.7-4.3-52.1-21.8-114.5-36.3-176.2-41-17.9-1.4-62-1.4-79.5-.1-69.7 5.5-136.3 22-194.9 48.6-5.2 2.3-9.7 4.1-10.1 3.8-.4-.2-1.3-2.1-2-4.2-10.1-31.1-39.5-63.9-71.8-80.2-11.5-5.7-33.6-13-39.6-13-.9 0-1.6 1.7-2.1 4.5-.3 2.5-1 4.5-1.4 4.5-.4 0-2.7-.7-5-1.5S56.4 45 56 45c-1.1 0-11.8 29.2-18.5 50.5-18.6 59.4-29.9 119-35.2 187-2.4 31.8-2.4 100.9 0 131.5 12.1 149 58.5 281.9 133.4 381.8 25.6 34.2 30.1 38.5 58.7 55.7 57.2 34.4 125 56.5 192.1 62.5 70.1 6.4 141.2-4 207.8-30.2l12.9-5 8.6 1.8c7.2 1.5 13.8 1.9 38.2 2.1 16.4.1 37.7.8 48 1.7 92.8 7.8 159.6 7.3 189-1.4 21.3-6.3 30.3-24 33-64.2 2.3-33.8-4.1-100.5-15-157.7-1.1-5.8-1.8-10.6-1.6-10.9.3-.2 10.3 0 22.3.5s21.9.8 22.1.7c.2-.1-14.2-19.2-32-42.4l-32.3-42.3-30.8.6c-28.2.5-30.7.4-30.3-1.2 1.2-4 7-28.8 9.7-41.6 7-32.5 13.3-76.7 16.1-113 1.7-21.8 1.7-102.4 0-127-4.1-58.6-13.5-112.8-28.9-167.5-6.8-24.2-22.1-69.2-24.3-71.4-.5-.5-2.5-.2-4.9.8L790 48V37l-6.7.1c-3.8 0-11.5.9-17.4 1.9zM89.2 145.4c4.2 4.9 10.8 8.6 15.7 8.6 5.7 0 11.8-4.5 14-10.3l1.1-2.8 9.2 8.3c20 18 35 27.2 52.8 32.4 8.5 2.5 36.9 2.6 47.1.2 5.1-1.2 9-1.3 17.7-.7 51.2 3.7 100 33.2 129.5 78.4 12.3 18.9 22.3 43.4 26.7 65.4 2.8 14.4 4.5 36.5 3.6 48.2l-.8 9.5-16.9 20c-9.4 10.9-18.1 21-19.5 22.4l-2.5 2.5 2.6-5.8c12.7-29 15.2-70.5 6-102.1-7.7-26.6-21.1-49.1-40.7-68.2-14.7-14.4-24.7-21.4-42.3-29.8-34.6-16.6-78.6-19.3-115.2-7.1-24 8-42.6 19.6-60.8 37.9-22.2 22.3-35.8 47.1-42.7 77.7-2 9.2-2.3 13-2.3 31.9 0 18.5.4 22.9 2.3 31.3 8.6 38.6 29.6 70.9 60.9 94.2 10.6 7.8 31.2 18.3 44.3 22.4 17.8 5.6 24.6 6.6 47 6.6s29.3-1 47-6.6c12.7-4 31.8-13.5 42.7-21.2 16.8-11.8 38.5-36 46.1-51.5 1.4-2.8 2.9-5.2 3.2-5.2.3 0 4.5 5.2 9.4 11.6 10.3 13.5 10.5 10.8-1.8 27.1-27.4 36.5-66.4 61.6-110.3 70.8-16.5 3.5-46.8 3-64.3-1.1-44.3-10.4-82.6-37.6-107.5-76.3-10.2-15.7-20.5-40.5-24.9-59.4-2.4-10.2-4.6-28.8-4.6-38.5 0-17.6 8.3-126 12.6-163.2 3.3-29.9 9.2-62 11.3-62 .4 0 2.3 2 4.3 4.4zm631.2-.4c3.2 7.3 11.6 10.8 19.1 8 1.5-.6 5.3-3.5 8.5-6.6l5.8-5.5 1.5 5.3c5.3 18.5 8.8 45.9 14.2 108.8 5.4 64.3 7.7 102 7.1 117.5-1.9 52-27 102-67.6 134.8-23.4 18.9-52.7 31.6-82.1 35.7-11.8 1.7-34.5 1.5-46.7-.4-48-7.3-91.6-35.4-118.1-76-4.4-6.8-4.9-8.1-3.8-9.5 12-14.2 18.1-21.1 18.7-21.1.4 0 1.9 2.2 3.4 5 8 14.7 26.7 35.2 42.6 46.7 17.5 12.5 37.7 21.5 60 26.5 9.3 2 13 2.3 31.5 2.2 17.7 0 22.5-.4 30.7-2.2 43.6-9.6 79.8-35.4 102.3-72.7 22.8-37.8 28.1-85.2 14.4-127.7-12.6-39.2-42.1-73.1-79.4-91.3-21.7-10.5-37.9-14.4-63.5-15.2-15.9-.5-20.2-.2-30.9 1.6-55.1 9.4-101.2 47.9-120.1 100.4-5.7 15.6-8.1 28.7-8.7 46.8-.8 23.4 1.9 40.5 9.7 61.1 2.2 5.6 3.8 10.3 3.7 10.4-.1.2-9.2-10.2-20.2-23-12.1-14.1-20.2-24.5-20.6-26.2-1.2-5.5-.9-26 .6-38.9 5.1-43.8 23.6-81.1 55.4-111.7 24.1-23.3 51.7-37.9 83.5-44.3 18.1-3.6 28.4-4.1 38.6-1.9 12.6 2.7 34.8 2.5 45.5-.5 18-4.8 34.9-15.3 56.5-35 3-2.8 5.8-5 6.1-5.1.3 0 1.3 1.8 2.3 4zM250 233c54.3 9.8 96.9 53.6 105.5 108.6 2.1 13 1.6 35.6-1 47.4-9 40.7-35.8 74.2-73.5 91.9-43.2 20.2-95.3 14.7-133.8-14.3-17-12.9-28.7-27-38.2-46.1-10.9-22-13.5-33.6-13.5-59.5 0-16.8.3-19.5 2.8-29.3 13.2-52.3 53.8-90.2 106.7-99.2 12-2.1 31.9-1.8 45 .5zm386.1-.4c26 4.4 49.7 16.4 69 35.1 20.9 20.3 34.1 45.2 38.5 73.3 2.1 13.6 1.5 37.6-1.4 50.1-13.9 59.7-67 101.9-128.3 101.9-46.8 0-90.1-25.2-113.7-66.3-6.4-11.2-10.4-21.4-14-35.5-2.4-9.7-2.6-12.4-2.6-29.2 0-16.7.2-19.5 2.6-29 6.6-26.1 17.2-45.4 34.8-63.1 21.3-21.4 45-33.2 77-38.2 6.8-1.1 29.5-.6 38.1.9zM456.5 571.5c15 1.9 15.2 1.9 31.5 6.2 41.3 10.9 77.3 31.7 108.1 62.3 12.7 12.7 29.9 33.8 29.9 36.8 0 .7-1.1 5.2-2.4 10-1.4 4.8-5 17.7-8.1 28.7-12 42.8-23.2 78.3-30.6 97-9.2 23.4-9.2 23.1-8.7 32.5.3 6.3 1 9.7 2.7 12.9 1.2 2.4 1.9 4.7 1.4 5.1-2.5 2.3-38 13.4-55.9 17.5-76.1 17.3-151.7 14.4-225.9-8.6-34.3-10.7-73.6-29.1-103.8-48.7l-7-4.5.6-17.6c.8-26.5 5-48.8 13.6-72.8C222.3 671 265.6 622.2 320 595c24.3-12.2 53.2-20.8 80-23.9 12.5-1.4 43.5-1.2 56.5.4zm431.9 36.1c7 9.2 12.5 16.9 12.1 17.2-.8.9-220.3-7.3-221.2-8.2-.8-.8-3.2-14.4-3.2-18.4l-.1-3.2h16.3c8.9 0 42.1-.7 73.7-1.5 31.6-.9 64.3-1.7 72.5-1.8 8.3-.1 20-.4 26.1-.5l11.1-.2 12.7 16.6zm-124.9 36.9c36.3 1.4 77.6 2.9 91.9 3.5 14.2.5 26.1 1.1 26.3 1.4 2.6 2.5 13.7 76.8 16.8 112.3 1.9 21.9 2 57.7 0 70.3-2.3 15.7-6.2 24.8-11.3 26.9-20.7 8.3-94 9-180.4 1.7-8.2-.7-15-1.4-15.2-1.7-.2-.2.2-4.9 1-10.4 2.1-14.1 3-73.9 1.5-99.2-1.6-26.9-6-70-9.6-94.5-.8-5.4-1.5-10.5-1.5-11.3 0-2 1.5-2 80.5 1z"/><path d="M212.7 304c-40.7 6.4-71.9 32.5-84.6 70.5-2.9 8.9-5.1 21-5.1 28.6v3.9H146.7l.7-6.8c2.9-28.7 19.2-52.5 44.2-64.7 11.2-5.5 21-7.7 34.4-7.8 22-.2 40.3 7.2 55.7 22.4 14 13.8 21.8 30.3 23.8 50.1l.7 6.8h24.1l-.7-8.6c-3.7-45.6-37.1-83.4-82-93-8.8-1.9-27.1-2.6-34.9-1.4zM598.5 304.4c-22.6 3.7-41.4 13.2-57.1 29-18.6 18.5-30.2 44.6-30.4 67.8v5.8H534.7l.7-8c2.7-32.5 26.6-60.5 59.1-69.1 11.3-3.1 27.9-3 39.4 0C657 336 676 351.8 686 373.3c3.4 7.1 7 20.4 7 25.6 0 8.2-.1 8.1 12.6 8.1 6.6 0 11.5-.4 11.9-1 1-1.6-1.3-18.5-3.6-27-2.7-10-10.5-26-16.7-34-19.3-25.4-47.9-40.4-79.2-41.5-6.9-.3-14.7.1-19.5.9zM485.6 723.6c-5.5 2.4-10.5 4.9-11.1 5.4-.9.7-3.5.2-8.4-1.6-6.6-2.5-7.3-2.5-9-1-2.2 2-4.9 2.1-7.1.1-1.5-1.4-2.5-1.2-9.5 2l-7.9 3.6-10.4-3.7c-9.4-3.3-10.5-3.5-11.4-2.1-1 1.8-5.4 2.2-7.6.8-1.2-.7-21.4 5.8-23 7.4-.9.8 2.1 5.7 5.7 9.3 10.7 10.7 29.2 11.3 40.1 1.2l4.3-3.9 4.4 3.9c7.7 6.7 17.5 8.6 28.3 5.4 4.2-1.2 6.7-2.9 11-7.3l5.5-5.7 4.3 3.3c11.1 8.4 27.3 7.4 37.5-2.5 4.5-4.3 8.2-10.8 6.7-11.7-.6-.4-5.6-2.2-11.2-4.1-9.1-3-10.3-3.2-11.8-1.9-2.1 1.9-5.9 1.9-7.9.1-1.4-1.2-2.9-.8-11.5 3zM333.3 729.8c-5.7 2.5-10.3 5-10.3 5.6 0 2 5.3 8.5 9 11.1 10.4 7.2 22.5 7.4 33.2.6 4.9-3.1 10.8-10.2 10.8-13 0-1.1-3.2-2.8-10.5-5.4-9.8-3.6-10.5-3.8-12.7-2.3-2.8 2-5.2 2-6.8.1-.7-.8-1.5-1.5-1.9-1.4-.3 0-5.2 2.1-10.8 4.7z"/><path d="M436.8 752.3c-2.5 1.8-2.7 1.9-5.5.2-2.9-1.7-3-1.6-12.8 2.9-5.5 2.6-10.2 5.2-10.6 5.8-.5.8-3.4.2-9.8-2.1-8.3-3-9.2-3.1-10.7-1.7-1.9 2-5.8 2.1-7.3.2-1-1.2-2.6-.8-10.1 2.6l-9 4.1-11.6-4.1-11.7-4.1-2.6 2c-2.2 1.6-3.1 1.7-5.6.8-2.6-1-4.4-.7-13.5 2.6-5.8 2-10.6 3.9-10.8 4-.8.7 3 6.3 6.5 9.7 12 11.6 30.6 11 41.7-1.4l4.4-4.8 5.4 5.3c13.7 13.7 34.8 11.3 46-5.3l1.6-2.5 3.4 3.2c8.4 8 22.3 10.2 32.3 5.1 2.8-1.5 6.9-4.6 9.2-7.1l4.1-4.4 3.6 4.2c10.4 12.5 30.1 13.4 42.3 1.9l3.4-3.3 4 3.9c12.1 11.8 32.9 10.1 43-3.4 6.1-8 6.1-7.9-5.7-12-10.8-3.8-13.4-4.3-13.4-2.6 0 2-5 2.3-7.1.5-1.9-1.8-2.2-1.7-10.1 1.7l-8.2 3.6-10.6-3.7-10.5-3.8-2.7 2c-2.5 1.8-2.7 1.9-5.4.2-2.8-1.6-3.1-1.6-11.6 2.3-4.7 2.2-8.8 3.9-9 3.7-.2-.2-5.3-2.1-11.3-4.3l-11-3.9-2.7 2zM454 786.5c-1.4 1.7-4.7 1.9-6.9.6-2-1.3-22.5 6.2-22.9 8.3-.2.9-.5 1.6-.7 1.6-.2 0-4.5-1.6-9.5-3.5-8.1-3.1-9.3-3.3-10.6-2-1.8 1.8-6.5 2-8.2.3-.9-.9-3.4-.2-10.9 3.2-5.4 2.4-10.2 4.7-10.7 5.1-1.2 1.1 3.8 8.2 8 11.4 5.6 4.2 10.3 5.8 18 5.8 10.3 0 18.5-4.4 25-13.6l2-2.9 3.5 3.3c11.4 10.8 30.1 10.6 41.1-.3 3.1-3.2 7.5-10.5 6.6-11.2-.6-.5-20.9-7.6-21.7-7.6-.5 0-1.4.7-2.1 1.5z"/></svg>